<svg width="31" height="32" viewBox="0 0 31 32" fill="none" xmlns="http://www.w3.org/2000/svg">
<path d="M15.778 21.0828C18.5252 21.0828 20.7523 18.823 20.7523 16.0354C20.7523 13.2478 18.5252 10.988 15.778 10.988C13.0308 10.988 10.8037 13.2478 10.8037 16.0354C10.8037 18.823 13.0308 21.0828 15.778 21.0828Z" fill="#151515"/>
<path d="M30.6348 9.88842C30.618 8.61544 30.3832 7.35511 29.9407 6.16381C29.557 5.15896 28.9709 4.24637 28.2199 3.48436C27.469 2.72235 26.5696 2.12767 25.5793 1.73831C24.4203 1.29687 23.196 1.05817 21.9583 1.03238C20.3648 0.960111 19.8596 0.939941 15.8146 0.939941C11.7695 0.939941 11.2511 0.939942 9.66916 1.03238C8.43206 1.05836 7.20826 1.29705 6.04983 1.73831C5.05938 2.1274 4.15987 2.72198 3.40886 3.48403C2.65785 4.24607 2.07187 5.1588 1.68842 6.16381C1.2525 7.3389 1.01777 8.58096 0.994372 9.83632C0.923145 11.4549 0.901611 11.9675 0.901611 16.072C0.901611 20.1765 0.901611 20.7009 0.994372 22.3077C1.01922 23.5649 1.25278 24.8054 1.68842 25.9836C2.07251 26.9883 2.65892 27.9006 3.41019 28.6624C4.16145 29.4241 5.06104 30.0184 6.05149 30.4074C7.20675 30.8666 8.43076 31.1224 9.67082 31.1637C11.266 31.236 11.7712 31.2579 15.8162 31.2579C19.8613 31.2579 20.3797 31.2579 21.9616 31.1637C23.1992 31.139 24.4237 30.9009 25.5826 30.4595C26.5726 30.0697 27.4718 29.4749 28.2227 28.7129C28.9736 27.951 29.5599 27.0386 29.944 26.034C30.3797 24.8575 30.6132 23.617 30.6381 22.3581C30.7093 20.7412 30.7308 20.2286 30.7308 16.1224C30.7275 12.018 30.7275 11.4969 30.6348 9.88842V9.88842ZM15.8046 23.8339C11.5741 23.8339 8.14689 20.3563 8.14689 16.0636C8.14689 11.7709 11.5741 8.29336 15.8046 8.29336C17.8356 8.29336 19.7834 9.11201 21.2195 10.5692C22.6556 12.0264 23.4624 14.0028 23.4624 16.0636C23.4624 18.1244 22.6556 20.1008 21.2195 21.558C19.7834 23.0152 17.8356 23.8339 15.8046 23.8339V23.8339ZM23.7671 9.81783C23.5326 9.81805 23.3003 9.77134 23.0835 9.68036C22.8668 9.58938 22.6699 9.45593 22.504 9.28763C22.3382 9.11934 22.2066 8.91951 22.117 8.69958C22.0273 8.47966 21.9813 8.24395 21.9815 8.00595C21.9815 7.76812 22.0277 7.53262 22.1174 7.31289C22.2071 7.09317 22.3385 6.89352 22.5043 6.72535C22.67 6.55718 22.8667 6.42378 23.0833 6.33276C23.2998 6.24175 23.5319 6.1949 23.7663 6.1949C24.0007 6.1949 24.2328 6.24175 24.4493 6.33276C24.6659 6.42378 24.8626 6.55718 25.0284 6.72535C25.1941 6.89352 25.3256 7.09317 25.4153 7.31289C25.505 7.53262 25.5511 7.76812 25.5511 8.00595C25.5511 9.00769 24.7527 9.81783 23.7671 9.81783Z" fill="#151515"/>
</svg>
