<svg width="30" height="32" viewBox="0 0 30 32" fill="none" xmlns="http://www.w3.org/2000/svg">
<path fill-rule="evenodd" clip-rule="evenodd" d="M14.9394 0.939941C6.68789 0.939941 0 7.72737 0 16.0989C0 24.4704 6.68789 31.2579 14.9394 31.2579C23.1897 31.2579 29.8789 24.4704 29.8789 16.0989C29.8789 7.72737 23.1897 0.939941 14.9394 0.939941ZM15.1137 24.9644C10.2982 24.9644 6.39906 20.9978 6.39906 16.0989C6.39906 11.2 10.2982 7.23344 15.1137 7.23344C17.4667 7.23344 19.4337 8.11392 20.9426 9.54392L18.4851 12.0426V12.0376C17.57 11.1508 16.4097 10.696 15.1137 10.696C12.2379 10.696 9.90111 13.1669 9.90111 16.0939C9.90111 19.0183 12.2379 21.4968 15.1137 21.4968C17.7231 21.4968 19.4985 19.9783 19.8645 17.894H15.1137V14.4365H23.3117C23.4213 15.0302 23.4798 15.6492 23.4798 16.2985C23.4798 21.3641 20.1471 24.9644 15.1137 24.9644V24.9644Z" fill="#151515"/>
</svg>
