<svg width="38" height="38" viewBox="0 0 38 38" fill="none" xmlns="http://www.w3.org/2000/svg">
<path fill-rule="evenodd" clip-rule="evenodd" d="M37.496 11.0991C37.4079 9.10132 37.0849 7.72787 36.6221 6.53775C36.1447 5.27448 35.4102 4.14347 34.4479 3.20325C33.5077 2.24841 32.3692 1.50645 31.1205 1.03649C29.9235 0.573702 28.5573 0.250638 26.5595 0.162556C24.5468 0.0670141 23.9078 0.0449219 18.8031 0.0449219C13.6984 0.0449219 13.0594 0.0670141 11.0542 0.155096C9.05639 0.243178 7.68294 0.566529 6.49312 1.02903C5.22955 1.50645 4.09855 2.24095 3.15833 3.20325C2.20349 4.14347 1.46182 5.28194 0.99157 6.53058C0.52878 7.72787 0.205716 9.09386 0.117634 11.0916C0.0220922 13.1043 0 13.7433 0 18.848C0 23.9528 0.0220922 24.5917 0.110174 26.597C0.198257 28.5947 0.521607 29.9682 0.984397 31.1583C1.46182 32.4216 2.20349 33.5526 3.15833 34.4928C4.09855 35.4476 5.23701 36.1896 6.48566 36.6595C7.68294 37.1223 9.04893 37.4454 11.047 37.5335C13.0519 37.6219 13.6912 37.6437 18.7959 37.6437C23.9007 37.6437 24.5396 37.6219 26.5449 37.5335C28.5426 37.4454 29.9161 37.1223 31.1059 36.6595C33.6327 35.6826 35.6305 33.6848 36.6075 31.1583C37.07 29.961 37.3933 28.5947 37.4814 26.597C37.5695 24.5917 37.5916 23.9528 37.5916 18.848C37.5916 13.7433 37.5841 13.1043 37.496 11.0991ZM34.1102 26.4501C34.0293 28.2863 33.7208 29.2779 33.4638 29.9389C32.832 31.5769 31.532 32.8769 29.894 33.5087C29.2329 33.7658 28.2342 34.0742 26.4051 34.1548C24.422 34.2432 23.8272 34.265 18.8106 34.265C13.7939 34.265 13.1917 34.2432 11.2157 34.1548C9.37946 34.0742 8.38789 33.7658 7.72684 33.5087C6.91172 33.2074 6.16977 32.73 5.56754 32.1057C4.94322 31.496 4.46579 30.7615 4.16454 29.9464C3.90746 29.2853 3.59903 28.2863 3.51841 26.4575C3.43004 24.4744 3.40823 23.8793 3.40823 18.8627C3.40823 13.846 3.43004 13.2438 3.51841 11.2681C3.59903 9.43184 3.90746 8.44027 4.16454 7.77922C4.46579 6.96382 4.94322 6.22215 5.575 5.61963C6.1844 4.99531 6.9189 4.51789 7.7343 4.21692C8.39535 3.95984 9.39438 3.65141 11.2232 3.5705C13.2063 3.48242 13.8014 3.46033 18.8177 3.46033C23.8419 3.46033 24.4366 3.48242 26.4126 3.5705C28.2488 3.65141 29.2404 3.95984 29.9014 4.21692C30.7166 4.51789 31.4585 4.99531 32.0608 5.61963C32.6851 6.22932 33.1625 6.96382 33.4638 7.77922C33.7208 8.44027 34.0293 9.43901 34.1102 11.2681C34.1982 13.2512 34.2203 13.846 34.2203 18.8627C34.2203 23.8793 34.1982 24.4669 34.1102 26.4501ZM18.8031 9.18941C13.4708 9.18941 9.14449 13.5155 9.14449 18.848C9.14449 24.1806 13.4708 28.5067 18.8031 28.5067C24.1357 28.5067 28.4617 24.1806 28.4617 18.848C28.4617 13.5155 24.1357 9.18941 18.8031 9.18941ZM18.8031 25.1133C15.3438 25.1133 12.5378 22.3076 12.5378 18.848C12.5378 15.3884 15.3438 12.5827 18.8031 12.5827C22.2627 12.5827 25.0684 15.3884 25.0684 18.848C25.0684 22.3076 22.2627 25.1133 18.8031 25.1133ZM28.8437 11.0623C30.0892 11.0623 31.0988 10.0527 31.0988 8.80746C31.0988 7.56197 30.0892 6.55261 28.8437 6.55261C27.5985 6.55261 26.5889 7.56197 26.5889 8.80746C26.5889 10.0527 27.5985 11.0623 28.8437 11.0623Z" fill="white"/>
</svg>
