<svg width="31" height="32" viewBox="0 0 31 32" fill="none" xmlns="http://www.w3.org/2000/svg">
<path d="M28.2394 7.91055C23.7955 0.939711 14.7226 -1.1327 7.68649 3.20052C0.835528 7.53375 -1.38641 16.9538 3.05746 23.9246L3.42779 24.4898L1.9465 30.1419L7.50133 28.6347L8.05682 29.0115C10.4639 30.3303 13.0562 31.0839 15.6484 31.0839C18.4258 31.0839 21.2033 30.3303 23.6104 28.8231C30.4613 24.3014 32.4981 15.0698 28.2394 7.91055ZM24.351 22.4174C23.6104 23.5478 22.6846 24.3014 21.3884 24.4898C20.6478 24.4898 19.722 24.8666 16.0188 23.3594C12.871 21.8522 10.2788 19.403 8.42714 16.577C7.31617 15.2582 6.76069 13.5626 6.57553 11.867C6.57553 10.3598 7.13101 9.04096 8.05682 8.09895C8.42714 7.72215 8.79746 7.53375 9.16779 7.53375H10.0936C10.4639 7.53375 10.8342 7.53375 11.0194 8.28735C11.3897 9.22936 12.3155 11.4902 12.3155 11.6786C12.5007 11.867 12.5007 12.2438 12.3155 12.4322C12.5007 12.809 12.3155 13.1858 12.1304 13.3742C11.9452 13.5626 11.76 13.9394 11.5749 14.1278C11.2046 14.3162 11.0194 14.693 11.2046 15.0698C11.9452 16.2002 12.871 17.3306 13.7968 18.2726C14.9078 19.2146 16.0188 19.9682 17.3149 20.5334C17.6852 20.7218 18.0555 20.7218 18.2407 20.345C18.4258 19.9682 19.3517 19.0262 19.722 18.6494C20.0923 18.2726 20.2775 18.2726 20.6478 18.461L23.6104 19.9682C23.9807 20.1566 24.351 20.345 24.5362 20.5334C24.7213 21.0986 24.7213 21.8522 24.351 22.4174Z" fill="#151515"/>
</svg>
